<svg xmlns="http://www.w3.org/2000/svg" xmlns:xlink="http://www.w3.org/1999/xlink" width="500" zoomAndPan="magnify" viewBox="0 0 375 374.999991" height="500" preserveAspectRatio="xMidYMid meet" version="1.0"><defs><g/></defs><g fill="#000000" fill-opacity="1"><g transform="translate(20.902274, 212.000454)"><g><path d="M 21.15625 -39.691406 L 22.464844 -63.246094 C 22.464844 -65.863281 22.898438 -66.738281 23.117188 -68.917969 L 23.773438 -82.875 C 23.773438 -83.75 23.773438 -84.839844 23.773438 -85.929688 L 24.644531 -97.269531 C 25.082031 -101.414062 24.863281 -106.648438 25.082031 -109.703125 C 25.082031 -111.664062 24.644531 -119.296875 24.425781 -121.261719 C 23.554688 -124.75 22.683594 -129.765625 18.972656 -129.765625 C 14.394531 -129.765625 9.597656 -116.027344 8.722656 -112.535156 C 8.289062 -110.136719 6.761719 -105.558594 10.03125 -105.558594 C 11.339844 -105.558594 11.558594 -106.648438 11.558594 -107.300781 C 11.339844 -109.046875 10.6875 -107.300781 11.339844 -110.136719 C 11.777344 -112.753906 15.921875 -124.3125 18.972656 -125.40625 L 19.628906 -116.679688 C 19.628906 -107.300781 17.882812 -99.234375 17.664062 -90.292969 C 17.664062 -87.457031 17.664062 -86.582031 17.449219 -83.75 L 14.175781 -36.203125 C 14.175781 -34.023438 14.394531 -31.1875 14.175781 -29.226562 L 13.523438 -2.617188 C 13.523438 -0.4375 13.957031 -2.179688 13.738281 -0.21875 C 13.085938 6.761719 13.523438 15.484375 13.523438 22.898438 C 14.832031 23.554688 15.703125 23.992188 16.355469 23.992188 C 19.628906 23.992188 18.972656 18.320312 19.410156 15.046875 C 19.847656 10.46875 19.628906 5.453125 20.066406 1.308594 C 22.464844 -26.171875 30.96875 -61.503906 42.527344 -86.148438 C 43.402344 -87.675781 43.835938 -88.984375 44.710938 -90.726562 C 48.199219 -98.796875 66.957031 -134.347656 76.769531 -134.347656 C 81.132812 -134.347656 80.257812 -125.1875 70.445312 -105.777344 C 68.265625 -101.414062 66.300781 -97.050781 63.902344 -92.691406 L 60.414062 -86.148438 C 58.011719 -80.695312 54.523438 -75.460938 51.90625 -70.226562 L 46.234375 -60.628906 C 45.800781 -59.105469 45.363281 -58.667969 44.710938 -57.578125 C 40.566406 -51.46875 37.292969 -45.144531 33.804688 -38.601562 C 31.84375 -35.550781 28.789062 -32.277344 28.789062 -28.351562 C 28.789062 -26.609375 30.535156 -26.171875 31.84375 -26.171875 C 34.023438 -26.171875 36.421875 -28.351562 37.949219 -29.226562 C 43.617188 -32.277344 51.90625 -35.765625 59.320312 -35.765625 C 62.59375 -35.765625 65.863281 -35.113281 68.480469 -33.367188 C 78.078125 -27.480469 78.949219 -14.613281 75.460938 -3.925781 C 74.804688 -2.617188 74.371094 -1.746094 73.714844 -0.4375 C 68.480469 12.648438 50.597656 25.953125 37.730469 31.1875 C 29.441406 34.242188 20.9375 36.203125 11.996094 36.859375 C 11.121094 36.859375 10.25 36.859375 9.160156 36.859375 C 6.761719 36.859375 4.363281 37.074219 4.363281 39.691406 C 4.363281 41.875 6.105469 42.09375 7.851562 42.09375 C 8.722656 42.09375 9.378906 42.09375 10.03125 42.09375 C 18.757812 41.21875 24.425781 41.4375 32.933594 38.601562 C 35.332031 37.949219 36.859375 37.511719 39.257812 36.421875 C 41 35.984375 40.785156 35.765625 42.527344 35.113281 C 46.671875 33.804688 49.945312 31.40625 53.652344 29.007812 C 59.976562 25.082031 61.066406 23.117188 65.863281 19.410156 C 67.609375 18.101562 68.480469 16.355469 70.226562 14.832031 C 77.640625 7.414062 83.3125 -5.671875 83.3125 -16.140625 C 83.3125 -22.027344 80.257812 -32.496094 74.589844 -35.765625 C 73.496094 -36.640625 72.625 -37.511719 71.535156 -38.167969 C 67.828125 -40.128906 63.683594 -41 59.320312 -41 C 51.90625 -41 44.054688 -38.382812 38.382812 -35.332031 C 38.820312 -37.511719 49.289062 -53.871094 51.46875 -57.578125 C 55.394531 -64.554688 60.847656 -73.0625 64.121094 -80.476562 C 68.265625 -89.417969 74.804688 -99.886719 78.515625 -110.136719 C 80.476562 -115.589844 80.914062 -115.589844 83.3125 -123.003906 C 86.367188 -133.039062 83.75 -140.015625 77.640625 -140.015625 C 74.804688 -140.015625 70.878906 -138.273438 66.738281 -134.566406 C 66.300781 -134.128906 66.519531 -134.347656 66.082031 -133.910156 L 64.121094 -131.949219 C 54.523438 -120.171875 47.980469 -109.046875 41.21875 -95.527344 C 40.347656 -94 40.128906 -93.34375 39.476562 -91.816406 L 31.625 -72.625 C 29.441406 -67.390625 27.917969 -61.9375 26.171875 -56.703125 L 22.027344 -40.785156 C 21.375 -39.476562 21.589844 -40.128906 21.15625 -39.691406 Z M 21.15625 -39.691406 "/></g></g></g><g fill="#000000" fill-opacity="1"><g transform="translate(110.539215, 212.000454)"><g><path d="M -0.21875 -8.722656 C 6.542969 -8.722656 12.214844 -16.355469 15.921875 -21.375 C 17.230469 -22.898438 18.101562 -24.207031 18.320312 -24.207031 C 18.320312 -19.628906 18.320312 -11.777344 24.644531 -11.777344 C 30.097656 -11.777344 42.09375 -21.375 44.710938 -25.953125 C 45.144531 -26.609375 45.144531 -27.699219 44.925781 -27.917969 C 44.710938 -28.132812 44.710938 -28.351562 44.710938 -28.351562 C 44.710938 -28.570312 44.054688 -28.570312 43.402344 -28.570312 C 43.183594 -28.570312 42.964844 -28.570312 42.746094 -28.570312 C 42.527344 -28.570312 41.65625 -27.699219 40.785156 -26.824219 C 38.382812 -24.425781 28.351562 -16.140625 24.863281 -16.140625 C 24.425781 -16.140625 24.207031 -16.355469 23.773438 -16.792969 C 22.898438 -17.882812 22.246094 -21.15625 22.464844 -26.171875 C 22.683594 -29.441406 22.683594 -29.441406 22.246094 -30.097656 C 21.808594 -30.96875 21.15625 -31.40625 20.5 -31.40625 C 20.066406 -31.40625 19.410156 -31.1875 18.757812 -30.75 C 17.882812 -30.097656 16.792969 -29.007812 13.304688 -24.863281 C 9.597656 -20.28125 4.796875 -15.484375 4.144531 -15.921875 C 3.925781 -15.921875 7.851562 -22.683594 10.25 -25.953125 C 13.957031 -31.1875 18.101562 -35.550781 19.628906 -35.550781 C 19.847656 -35.550781 20.066406 -35.550781 20.066406 -35.332031 C 20.066406 -35.332031 20.066406 -34.460938 20.28125 -33.804688 C 20.28125 -32.496094 20.28125 -32.277344 20.5 -32.058594 C 20.71875 -31.84375 20.9375 -31.84375 21.15625 -31.84375 C 22.027344 -31.84375 22.464844 -32.933594 22.683594 -34.675781 C 22.898438 -36.203125 22.898438 -37.074219 22.246094 -38.167969 C 21.808594 -39.257812 20.28125 -40.128906 18.757812 -40.128906 C 18.320312 -40.128906 18.101562 -39.910156 17.664062 -39.910156 C 9.597656 -38.601562 0.21875 -25.515625 -2.617188 -17.882812 C -3.269531 -15.921875 -3.269531 -14.613281 -3.054688 -13.085938 C -2.835938 -10.6875 -1.746094 -9.378906 -0.21875 -8.722656 Z M -0.21875 -8.722656 "/></g></g></g><g fill="#000000" fill-opacity="1"><g transform="translate(148.7058, 212.000454)"><g><path d="M -0.21875 -8.722656 C 6.542969 -8.722656 12.214844 -16.355469 15.921875 -21.375 C 17.230469 -22.898438 18.101562 -24.207031 18.320312 -24.207031 C 18.320312 -19.628906 18.320312 -11.777344 24.644531 -11.777344 C 30.097656 -11.777344 42.09375 -21.375 44.710938 -25.953125 C 45.144531 -26.609375 45.144531 -27.699219 44.925781 -27.917969 C 44.710938 -28.132812 44.710938 -28.351562 44.710938 -28.351562 C 44.710938 -28.570312 44.054688 -28.570312 43.402344 -28.570312 C 43.183594 -28.570312 42.964844 -28.570312 42.746094 -28.570312 C 42.527344 -28.570312 41.65625 -27.699219 40.785156 -26.824219 C 38.382812 -24.425781 28.351562 -16.140625 24.863281 -16.140625 C 24.425781 -16.140625 24.207031 -16.355469 23.773438 -16.792969 C 22.898438 -17.882812 22.246094 -21.15625 22.464844 -26.171875 C 22.683594 -29.441406 22.683594 -29.441406 22.246094 -30.097656 C 21.808594 -30.96875 21.15625 -31.40625 20.5 -31.40625 C 20.066406 -31.40625 19.410156 -31.1875 18.757812 -30.75 C 17.882812 -30.097656 16.792969 -29.007812 13.304688 -24.863281 C 9.597656 -20.28125 4.796875 -15.484375 4.144531 -15.921875 C 3.925781 -15.921875 7.851562 -22.683594 10.25 -25.953125 C 13.957031 -31.1875 18.101562 -35.550781 19.628906 -35.550781 C 19.847656 -35.550781 20.066406 -35.550781 20.066406 -35.332031 C 20.066406 -35.332031 20.066406 -34.460938 20.28125 -33.804688 C 20.28125 -32.496094 20.28125 -32.277344 20.5 -32.058594 C 20.71875 -31.84375 20.9375 -31.84375 21.15625 -31.84375 C 22.027344 -31.84375 22.464844 -32.933594 22.683594 -34.675781 C 22.898438 -36.203125 22.898438 -37.074219 22.246094 -38.167969 C 21.808594 -39.257812 20.28125 -40.128906 18.757812 -40.128906 C 18.320312 -40.128906 18.101562 -39.910156 17.664062 -39.910156 C 9.597656 -38.601562 0.21875 -25.515625 -2.617188 -17.882812 C -3.269531 -15.921875 -3.269531 -14.613281 -3.054688 -13.085938 C -2.835938 -10.6875 -1.746094 -9.378906 -0.21875 -8.722656 Z M -0.21875 -8.722656 "/></g></g></g><g fill="#000000" fill-opacity="1"><g transform="translate(186.872385, 212.000454)"><g><path d="M -55.179688 -101.851562 C -55.179688 -100.324219 -53.652344 -99.886719 -51.6875 -99.886719 C -49.945312 -99.886719 -47.980469 -100.324219 -46.453125 -100.324219 C -43.402344 -100.542969 -37.074219 -100.542969 -37.074219 -102.941406 C -37.074219 -104.25 -37.292969 -103.8125 -38.820312 -104.683594 L -39.691406 -104.902344 C -37.292969 -104.902344 -21.375 -109.265625 -17.449219 -110.136719 C -13.304688 -110.792969 -10.03125 -111.664062 -5.886719 -112.535156 C -1.746094 -113.191406 2.179688 -113.84375 5.886719 -114.71875 C 3.269531 -109.265625 4.363281 -90.507812 1.746094 -86.367188 C 0.21875 -83.964844 -1.308594 -82.003906 2.398438 -81.566406 L 4.796875 32.277344 C 5.234375 38.382812 6.105469 44.710938 6.761719 49.945312 C 7.195312 53.433594 7.851562 63.464844 12.648438 63.902344 C 15.046875 60.414062 13.085938 57.578125 12.214844 50.816406 L 8.722656 4.144531 C 7.851562 -1.089844 8.070312 -52.125 8.070312 -60.847656 L 8.941406 -89.417969 C 9.378906 -92.035156 11.121094 -92.253906 11.121094 -93.5625 C 11.121094 -96.835938 9.597656 -93.125 11.996094 -99.453125 L 17.882812 -116.898438 L 66.957031 -121.480469 C 70.664062 -121.480469 72.40625 -121.914062 75.242188 -122.132812 C 78.949219 -122.132812 80.695312 -121.480469 83.964844 -121.480469 C 84.621094 -120.386719 84.621094 -119.515625 86.148438 -119.515625 C 88.765625 -119.515625 90.945312 -124.53125 84.839844 -125.839844 C 82.222656 -126.496094 78.730469 -126.714844 74.804688 -126.714844 C 65.863281 -126.714844 54.742188 -125.40625 48.417969 -125.1875 C 41 -124.75 24.425781 -121.914062 19.410156 -121.914062 C 20.9375 -128.675781 22.898438 -134.78125 22.898438 -142.632812 C 22.898438 -145.03125 21.589844 -147.867188 19.628906 -147.867188 C 13.523438 -147.867188 6.980469 -124.53125 6.980469 -119.953125 C 0.652344 -119.296875 -18.972656 -114.5 -25.734375 -112.753906 C -29.878906 -111.882812 -55.179688 -105.121094 -55.179688 -101.851562 Z M 14.175781 -121.042969 C 13.957031 -121.480469 13.738281 -121.261719 13.738281 -121.042969 C 13.738281 -121.261719 13.738281 -121.480469 13.738281 -121.914062 C 13.738281 -123.003906 13.738281 -122.570312 14.175781 -123.003906 L 14.175781 -124.097656 C 14.394531 -124.96875 14.394531 -124.53125 14.613281 -125.1875 C 14.613281 -125.40625 14.613281 -126.058594 14.832031 -126.058594 C 15.046875 -127.148438 14.832031 -126.714844 15.265625 -127.148438 L 15.265625 -129.332031 L 15.484375 -129.113281 C 15.921875 -129.113281 15.703125 -129.984375 15.703125 -128.238281 C 15.484375 -127.148438 15.703125 -127.804688 15.265625 -127.148438 L 15.265625 -126.277344 C 14.832031 -125.1875 15.046875 -125.621094 14.613281 -125.1875 L 14.613281 -124.097656 C 14.394531 -123.222656 14.613281 -123.660156 14.175781 -123.003906 Z M 15.921875 -130.855469 C 16.140625 -130.855469 16.355469 -130.421875 16.140625 -130.203125 L 15.921875 -129.546875 C 15.703125 -129.546875 15.703125 -129.765625 15.703125 -130.203125 C 15.703125 -130.855469 15.921875 -130.855469 15.921875 -130.855469 Z M 12.214844 -115.808594 L 12.214844 -115.589844 C 12.214844 -115.589844 11.996094 -115.808594 12.214844 -115.808594 Z M 12.214844 -115.808594 "/></g></g></g><g fill="#000000" fill-opacity="1"><g transform="translate(209.118052, 212.000454)"><g><path d="M 14.175781 -4.578125 C 14.832031 -4.578125 15.484375 -4.363281 16.140625 -4.363281 C 22.246094 -4.363281 30.535156 -8.070312 37.730469 -14.175781 C 42.527344 -17.882812 51.90625 -26.390625 52.5625 -27.261719 C 53.214844 -28.351562 52.5625 -29.878906 51.253906 -29.878906 C 51.035156 -29.878906 50.816406 -29.660156 50.597656 -29.660156 C 49.945312 -29.441406 47.980469 -27.699219 40.566406 -22.027344 C 37.949219 -20.066406 35.113281 -17.882812 34.242188 -17.230469 C 27.917969 -12.648438 21.15625 -10.03125 16.355469 -10.03125 C 12.867188 -10.03125 8.722656 -11.339844 7.195312 -14.613281 C 6.761719 -15.703125 5.886719 -17.882812 6.105469 -18.101562 C 6.324219 -18.101562 6.980469 -18.320312 7.632812 -18.320312 C 14.175781 -19.847656 24.644531 -28.570312 24.644531 -36.203125 C 24.863281 -38.167969 24.644531 -39.257812 23.773438 -40.785156 C 22.898438 -42.746094 21.375 -43.617188 19.191406 -43.835938 C 10.03125 -43.835938 3.269531 -32.277344 1.527344 -24.425781 C 1.308594 -22.898438 1.308594 -22.246094 1.308594 -19.628906 C 1.308594 -12.867188 2.835938 -11.339844 7.195312 -6.980469 C 9.160156 -5.671875 11.777344 -4.796875 14.175781 -4.578125 Z M 8.070312 -21.375 C 6.761719 -20.9375 6.105469 -20.71875 5.886719 -20.9375 C 5.886719 -20.9375 5.886719 -21.808594 6.105469 -22.464844 C 6.761719 -27.699219 8.941406 -32.496094 11.996094 -35.765625 C 14.394531 -37.949219 17.449219 -39.910156 18.757812 -39.910156 C 20.9375 -39.910156 21.808594 -36.859375 20.5 -33.367188 C 18.539062 -28.570312 12.867188 -22.898438 8.070312 -21.375 Z M 8.070312 -21.375 "/></g></g></g><g fill="#000000" fill-opacity="1"><g transform="translate(254.481763, 212.000454)"><g><path d="M 2.179688 -20.5 C 2.179688 -13.738281 1.308594 2.617188 10.25 2.617188 C 13.304688 2.617188 18.320312 -1.308594 19.847656 -3.054688 C 23.992188 -6.980469 38.382812 -26.171875 38.382812 -30.75 C 38.382812 -30.96875 37.292969 -31.84375 36.640625 -32.058594 C 36.421875 -32.058594 36.203125 -32.058594 36.203125 -32.058594 C 35.113281 -32.058594 35.113281 -31.40625 34.460938 -30.75 L 25.515625 -16.792969 C 21.808594 -11.777344 18.101562 -6.324219 12.867188 -3.054688 C 11.996094 -2.617188 11.339844 -2.398438 10.6875 -2.398438 C 9.378906 -2.398438 8.722656 -3.707031 8.070312 -5.886719 C 7.851562 -7.195312 7.632812 -8.722656 7.195312 -10.46875 C 5.886719 -17.664062 6.324219 -34.460938 7.851562 -40.785156 C 8.070312 -40.785156 8.289062 -40.566406 8.941406 -40.566406 C 9.160156 -40.566406 9.597656 -40.566406 10.25 -40.785156 C 10.25 -43.402344 10.6875 -47.980469 8.070312 -47.980469 C 4.144531 -47.980469 2.179688 -24.425781 2.179688 -20.5 Z M 6.542969 -63.246094 C 6.542969 -61.722656 8.070312 -60.847656 9.8125 -60.847656 C 11.121094 -60.847656 12.214844 -61.285156 12.867188 -62.8125 L 13.738281 -65.863281 C 12.429688 -66.738281 11.339844 -66.957031 10.46875 -66.957031 C 7.632812 -66.957031 6.542969 -63.464844 6.542969 -63.246094 Z M 6.542969 -63.246094 "/></g></g></g><g fill="#000000" fill-opacity="1"><g transform="translate(284.142641, 212.000454)"><g><path d="M 1.308594 3.488281 C 1.308594 -2.617188 4.796875 -24.863281 8.503906 -29.441406 C 9.160156 -30.316406 10.03125 -30.097656 10.03125 -31.1875 C 10.03125 -32.933594 9.160156 -34.242188 8.070312 -34.242188 C 7.195312 -34.242188 6.105469 -33.367188 5.234375 -30.96875 C 2.617188 -24.863281 -9.597656 14.394531 0.21875 14.394531 C 3.707031 14.394531 9.378906 -3.488281 11.558594 -8.503906 C 13.304688 -13.085938 20.5 -29.660156 23.117188 -31.625 C 23.117188 -21.375 22.898438 -7.851562 29.441406 -0.21875 C 31.84375 2.835938 35.113281 3.925781 38.382812 3.925781 C 45.800781 3.925781 54.523438 -2.179688 59.320312 -5.671875 C 60.847656 -6.761719 61.9375 -7.851562 63.683594 -9.160156 L 72.40625 -15.921875 C 74.589844 -17.449219 74.804688 -20.28125 72.40625 -20.28125 C 71.316406 -20.28125 69.789062 -19.628906 67.828125 -18.320312 L 56.269531 -9.8125 C 51.035156 -6.324219 44.492188 -1.089844 38.820312 -1.089844 C 35.550781 -1.089844 32.714844 -3.054688 30.75 -8.289062 C 29.226562 -12.648438 29.226562 -15.484375 28.351562 -20.9375 C 27.699219 -25.734375 28.789062 -30.75 28.132812 -35.550781 C 27.699219 -38.601562 26.609375 -40.128906 24.863281 -40.128906 C 18.539062 -40.128906 5.453125 -7.632812 3.488281 -1.960938 Z M 1.308594 3.488281 "/></g></g></g></svg>